<mxfile host="65bd71144e">
    <diagram id="rXWLSJtcW8Hr9GMzgjLJ" name="Page-1">
        <mxGraphModel dx="1421" dy="1925" grid="1" gridSize="10" guides="1" tooltips="1" connect="1" arrows="1" fold="1" page="1" pageScale="1" pageWidth="850" pageHeight="1100" math="0" shadow="0">
            <root>
                <mxCell id="0"/>
                <mxCell id="1" parent="0"/>
                <mxCell id="13" value="" style="edgeStyle=none;html=1;endArrow=open;endFill=0;jumpSize=6;strokeWidth=2;" parent="1" source="11" target="12" edge="1">
                    <mxGeometry relative="1" as="geometry">
                        <Array as="points">
                            <mxPoint x="600" y="10"/>
                        </Array>
                    </mxGeometry>
                </mxCell>
                <mxCell id="11" value="GRID" style="whiteSpace=wrap;html=1;fillColor=#1ba1e2;fontColor=#ffffff;strokeColor=#006EAF;opacity=50;" parent="1" vertex="1">
                    <mxGeometry x="640" y="-20" width="120" height="60" as="geometry"/>
                </mxCell>
                <mxCell id="12" value="COIN" style="whiteSpace=wrap;html=1;direction=west;fillColor=#60a917;fontColor=#ffffff;strokeColor=#2D7600;" parent="1" vertex="1">
                    <mxGeometry x="540" y="90" width="120" height="60" as="geometry"/>
                </mxCell>
                <mxCell id="17" value="" style="edgeStyle=none;jumpSize=6;html=1;endArrow=open;endFill=0;entryX=0.5;entryY=0;entryDx=0;entryDy=0;strokeWidth=2;" parent="1" source="15" target="11" edge="1">
                    <mxGeometry relative="1" as="geometry">
                        <mxPoint x="749.9999999999999" y="-130" as="targetPoint"/>
                        <Array as="points">
                            <mxPoint x="700" y="-130"/>
                        </Array>
                    </mxGeometry>
                </mxCell>
                <mxCell id="19" value="" style="edgeStyle=none;jumpSize=6;html=1;endArrow=open;endFill=0;strokeWidth=2;" parent="1" source="15" target="18" edge="1">
                    <mxGeometry relative="1" as="geometry"/>
                </mxCell>
                <mxCell id="21" value="" style="edgeStyle=none;jumpSize=6;html=1;endArrow=open;endFill=0;exitX=1;exitY=0.5;exitDx=0;exitDy=0;strokeWidth=2;" parent="1" source="15" target="20" edge="1">
                    <mxGeometry relative="1" as="geometry">
                        <mxPoint x="840" y="-50" as="sourcePoint"/>
                        <Array as="points">
                            <mxPoint x="1060" y="-130"/>
                        </Array>
                    </mxGeometry>
                </mxCell>
                <mxCell id="15" value="STAGE2" style="whiteSpace=wrap;html=1;fillColor=#1ba1e2;fontColor=#ffffff;strokeColor=#006EAF;" parent="1" vertex="1">
                    <mxGeometry x="800" y="-160" width="120" height="60" as="geometry"/>
                </mxCell>
                <mxCell id="18" value="PLAYER" style="whiteSpace=wrap;html=1;fillColor=#f0a30a;fontColor=#000000;strokeColor=#BD7000;" parent="1" vertex="1">
                    <mxGeometry x="800" y="-20" width="120" height="60" as="geometry"/>
                </mxCell>
                <mxCell id="23" value="" style="edgeStyle=none;jumpSize=6;html=1;endArrow=open;endFill=0;exitX=0;exitY=0.5;exitDx=0;exitDy=0;entryX=0.5;entryY=0;entryDx=0;entryDy=0;strokeWidth=2;" parent="1" source="20" target="22" edge="1">
                    <mxGeometry relative="1" as="geometry">
                        <Array as="points">
                            <mxPoint x="730" y="90"/>
                        </Array>
                    </mxGeometry>
                </mxCell>
                <mxCell id="25" value="" style="edgeStyle=none;jumpSize=6;html=1;endArrow=open;endFill=0;entryX=0.5;entryY=0;entryDx=0;entryDy=0;strokeWidth=2;" parent="1" target="24" edge="1">
                    <mxGeometry relative="1" as="geometry">
                        <mxPoint x="1120" y="90" as="sourcePoint"/>
                        <Array as="points">
                            <mxPoint x="1190" y="90"/>
                        </Array>
                    </mxGeometry>
                </mxCell>
                <mxCell id="20" value="RULE" style="whiteSpace=wrap;html=1;fillColor=#e3c800;fontColor=#000000;strokeColor=#B09500;" parent="1" vertex="1">
                    <mxGeometry x="1000" y="60" width="120" height="60" as="geometry"/>
                </mxCell>
                <mxCell id="40" value="" style="edgeStyle=none;jumpSize=6;html=1;endArrow=open;endFill=0;strokeWidth=2;" parent="1" source="22" target="39" edge="1">
                    <mxGeometry relative="1" as="geometry">
                        <Array as="points">
                            <mxPoint x="590" y="230"/>
                        </Array>
                    </mxGeometry>
                </mxCell>
                <mxCell id="42" value="" style="edgeStyle=none;jumpSize=6;html=1;endArrow=open;endFill=0;strokeWidth=2;" parent="1" source="22" target="41" edge="1">
                    <mxGeometry relative="1" as="geometry"/>
                </mxCell>
                <mxCell id="44" value="" style="edgeStyle=none;jumpSize=6;html=1;endArrow=open;endFill=0;strokeWidth=2;" parent="1" source="22" target="43" edge="1">
                    <mxGeometry relative="1" as="geometry">
                        <Array as="points">
                            <mxPoint x="870" y="230"/>
                        </Array>
                    </mxGeometry>
                </mxCell>
                <mxCell id="22" value="CORNERS" style="whiteSpace=wrap;html=1;fillColor=#e3c800;fontColor=#fafafa;strokeColor=#B09500;opacity=50;" parent="1" vertex="1">
                    <mxGeometry x="670" y="200" width="120" height="60" as="geometry"/>
                </mxCell>
                <mxCell id="34" value="" style="edgeStyle=none;jumpSize=6;html=1;endArrow=open;endFill=0;strokeWidth=2;" parent="1" source="24" target="33" edge="1">
                    <mxGeometry relative="1" as="geometry">
                        <Array as="points">
                            <mxPoint x="1040" y="230"/>
                        </Array>
                    </mxGeometry>
                </mxCell>
                <mxCell id="36" value="" style="edgeStyle=none;jumpSize=6;html=1;endArrow=open;endFill=0;strokeWidth=2;" parent="1" source="24" target="35" edge="1">
                    <mxGeometry relative="1" as="geometry"/>
                </mxCell>
                <mxCell id="38" value="" style="edgeStyle=none;jumpSize=6;html=1;endArrow=open;endFill=0;strokeWidth=2;" parent="1" source="24" target="37" edge="1">
                    <mxGeometry relative="1" as="geometry">
                        <Array as="points">
                            <mxPoint x="1340" y="230"/>
                        </Array>
                    </mxGeometry>
                </mxCell>
                <mxCell id="24" value="MIDDLE_POSITIONS" style="whiteSpace=wrap;html=1;fillColor=#e3c800;fontColor=#fafafa;strokeColor=#B09500;opacity=50;" parent="1" vertex="1">
                    <mxGeometry x="1115" y="200" width="150" height="60" as="geometry"/>
                </mxCell>
                <mxCell id="33" value="OUTSIDE" style="whiteSpace=wrap;html=1;fillColor=#fa6800;fontColor=#fafafa;strokeColor=#C73500;opacity=50;" parent="1" vertex="1">
                    <mxGeometry x="980" y="320" width="120" height="60" as="geometry"/>
                </mxCell>
                <mxCell id="35" value="MIDDLE" style="whiteSpace=wrap;html=1;fillColor=#fa6800;fontColor=#fafafa;strokeColor=#C73500;opacity=50;" parent="1" vertex="1">
                    <mxGeometry x="1130" y="320" width="120" height="60" as="geometry"/>
                </mxCell>
                <mxCell id="37" value="INSIDE" style="whiteSpace=wrap;html=1;fillColor=#fa6800;fontColor=#fafafa;strokeColor=#C73500;opacity=50;" parent="1" vertex="1">
                    <mxGeometry x="1280" y="320" width="120" height="60" as="geometry"/>
                </mxCell>
                <mxCell id="39" value="OUTSIDE" style="whiteSpace=wrap;html=1;fillColor=#fa6800;fontColor=#fafafa;strokeColor=#C73500;opacity=50;" parent="1" vertex="1">
                    <mxGeometry x="530" y="320" width="120" height="60" as="geometry"/>
                </mxCell>
                <mxCell id="41" value="MIDDLE" style="whiteSpace=wrap;html=1;fillColor=#fa6800;fontColor=#fafafa;strokeColor=#C73500;opacity=50;" parent="1" vertex="1">
                    <mxGeometry x="670" y="320" width="120" height="60" as="geometry"/>
                </mxCell>
                <mxCell id="43" value="INSIDE" style="whiteSpace=wrap;html=1;fillColor=#fa6800;fontColor=#fafafa;strokeColor=#C73500;opacity=50;" parent="1" vertex="1">
                    <mxGeometry x="810" y="320" width="120" height="60" as="geometry"/>
                </mxCell>
                <mxCell id="45" value="GRID" style="whiteSpace=wrap;html=1;fillColor=#1ba1e2;strokeColor=#006EAF;fontColor=#ffffff;opacity=50;" parent="1" vertex="1">
                    <mxGeometry x="130" y="-20" width="120" height="60" as="geometry"/>
                </mxCell>
                <mxCell id="46" value="" style="edgeStyle=none;jumpSize=6;html=1;endArrow=open;endFill=0;entryX=0.5;entryY=0;entryDx=0;entryDy=0;strokeWidth=2;" parent="1" source="50" target="45" edge="1">
                    <mxGeometry relative="1" as="geometry">
                        <mxPoint x="239.9999999999999" y="-130" as="targetPoint"/>
                        <Array as="points">
                            <mxPoint x="190" y="-130"/>
                        </Array>
                    </mxGeometry>
                </mxCell>
                <mxCell id="47" value="" style="edgeStyle=none;jumpSize=6;html=1;endArrow=open;endFill=0;strokeWidth=2;" parent="1" source="50" target="51" edge="1">
                    <mxGeometry relative="1" as="geometry"/>
                </mxCell>
                <mxCell id="50" value="STAGE1" style="whiteSpace=wrap;html=1;fillColor=#1ba1e2;fontColor=#ffffff;strokeColor=#006EAF;" parent="1" vertex="1">
                    <mxGeometry x="290" y="-160" width="120" height="60" as="geometry"/>
                </mxCell>
                <mxCell id="51" value="PLAYER" style="whiteSpace=wrap;html=1;fillColor=#f0a30a;fontColor=#000000;strokeColor=#BD7000;" parent="1" vertex="1">
                    <mxGeometry x="290" y="-20" width="120" height="60" as="geometry"/>
                </mxCell>
                <mxCell id="52" value="COIN" style="whiteSpace=wrap;html=1;direction=west;fillColor=#60a917;strokeColor=#2D7600;fontColor=#ffffff;" parent="1" vertex="1">
                    <mxGeometry x="30" y="90" width="120" height="60" as="geometry"/>
                </mxCell>
                <mxCell id="53" value="" style="edgeStyle=none;html=1;endArrow=open;endFill=0;jumpSize=6;strokeWidth=2;" parent="1" target="52" edge="1">
                    <mxGeometry relative="1" as="geometry">
                        <mxPoint x="130" y="10" as="sourcePoint"/>
                        <Array as="points">
                            <mxPoint x="90" y="10"/>
                        </Array>
                    </mxGeometry>
                </mxCell>
                <mxCell id="63" value="GRID" style="whiteSpace=wrap;html=1;fillColor=#1ba1e2;fontColor=#ffffff;strokeColor=#006EAF;opacity=50;" parent="1" vertex="1">
                    <mxGeometry x="1370" y="-20" width="120" height="60" as="geometry"/>
                </mxCell>
                <mxCell id="64" value="" style="edgeStyle=none;jumpSize=6;html=1;endArrow=open;endFill=0;entryX=0.5;entryY=0;entryDx=0;entryDy=0;strokeWidth=2;" parent="1" source="68" target="63" edge="1">
                    <mxGeometry relative="1" as="geometry">
                        <mxPoint x="1480" y="-130" as="targetPoint"/>
                        <Array as="points">
                            <mxPoint x="1430" y="-130"/>
                        </Array>
                    </mxGeometry>
                </mxCell>
                <mxCell id="65" value="" style="edgeStyle=none;jumpSize=6;html=1;endArrow=open;endFill=0;strokeWidth=2;" parent="1" source="68" target="69" edge="1">
                    <mxGeometry relative="1" as="geometry"/>
                </mxCell>
                <mxCell id="68" value="STAGE3" style="whiteSpace=wrap;html=1;fillColor=#1ba1e2;fontColor=#ffffff;strokeColor=#006EAF;" parent="1" vertex="1">
                    <mxGeometry x="1530" y="-160" width="120" height="60" as="geometry"/>
                </mxCell>
                <mxCell id="69" value="PLAYER" style="whiteSpace=wrap;html=1;fillColor=#f0a30a;fontColor=#000000;strokeColor=#BD7000;" parent="1" vertex="1">
                    <mxGeometry x="1530" y="-20" width="120" height="60" as="geometry"/>
                </mxCell>
                <mxCell id="70" value="COIN" style="whiteSpace=wrap;html=1;direction=west;fillColor=#60a917;fontColor=#ffffff;strokeColor=#2D7600;" parent="1" vertex="1">
                    <mxGeometry x="1270" y="90" width="120" height="60" as="geometry"/>
                </mxCell>
                <mxCell id="71" value="" style="edgeStyle=none;html=1;endArrow=open;endFill=0;jumpSize=6;strokeWidth=2;" parent="1" target="70" edge="1">
                    <mxGeometry relative="1" as="geometry">
                        <mxPoint x="1370" y="10" as="sourcePoint"/>
                        <Array as="points">
                            <mxPoint x="1330" y="10"/>
                        </Array>
                    </mxGeometry>
                </mxCell>
                <mxCell id="74" value="" style="edgeStyle=none;jumpSize=6;html=1;endArrow=open;endFill=0;entryX=0.5;entryY=0;entryDx=0;entryDy=0;strokeWidth=2;" parent="1" source="72" target="50" edge="1">
                    <mxGeometry relative="1" as="geometry">
                        <mxPoint x="710" y="-440" as="targetPoint"/>
                        <Array as="points">
                            <mxPoint x="350" y="-300"/>
                        </Array>
                    </mxGeometry>
                </mxCell>
                <mxCell id="76" value="" style="edgeStyle=none;jumpSize=6;html=1;endArrow=open;endFill=0;entryX=0.416;entryY=-0.042;entryDx=0;entryDy=0;entryPerimeter=0;strokeWidth=2;" parent="1" source="72" target="15" edge="1">
                    <mxGeometry relative="1" as="geometry">
                        <mxPoint x="850" y="-330" as="targetPoint"/>
                    </mxGeometry>
                </mxCell>
                <mxCell id="78" value="" style="edgeStyle=none;jumpSize=6;html=1;endArrow=open;endFill=0;entryX=0.5;entryY=0;entryDx=0;entryDy=0;strokeWidth=2;" parent="1" source="72" target="68" edge="1">
                    <mxGeometry relative="1" as="geometry">
                        <mxPoint x="990" y="-440" as="targetPoint"/>
                        <Array as="points">
                            <mxPoint x="1590" y="-300"/>
                        </Array>
                    </mxGeometry>
                </mxCell>
                <mxCell id="72" value="MAIN" style="whiteSpace=wrap;html=1;fillColor=#0050ef;fontColor=#ffffff;strokeColor=#001DBC;" parent="1" vertex="1">
                    <mxGeometry x="790" y="-330" width="120" height="60" as="geometry"/>
                </mxCell>
            </root>
        </mxGraphModel>
    </diagram>
</mxfile>